<svg data-v-423bf9ae="" xmlns="http://www.w3.org/2000/svg" viewBox="0 0 541 101" class="iconLeft"><!----><!----><!----><g data-v-423bf9ae="" id="146f83af-5acb-424e-9bdf-2b41ac40944e" fill="#361A02" transform="matrix(6.12870278179688,0,0,6.12870278179688,114.3717872047747,15.129327223011622)"><path d="M4.19 2.87L4.19 8.60L4.19 8.60Q4.55 8.60 4.82 8.52L4.82 8.52L4.82 8.52Q5.10 8.44 5.34 8.24L5.34 8.24L5.34 8.24Q5.59 8.04 5.74 7.70L5.74 7.70L5.74 7.70Q5.89 7.36 5.99 6.84L5.99 6.84L5.99 6.84Q6.08 6.31 6.08 5.60L6.08 5.60L6.08 5.60Q6.08 4.80 5.94 4.25L5.94 4.25L5.94 4.25Q5.80 3.70 5.53 3.41L5.53 3.41L5.53 3.41Q5.26 3.12 4.95 3.00L4.95 3.00L4.95 3.00Q4.63 2.88 4.19 2.87L4.19 2.87ZM2.55 0.92L4.61 0.92L4.61 0.92Q6.79 0.92 8.11 2.18L8.11 2.18L8.11 2.18Q9.44 3.44 9.44 5.66L9.44 5.66L9.44 5.66Q9.44 6.37 9.30 7.04L9.30 7.04L9.30 7.04Q9.17 7.71 8.86 8.35L8.86 8.35L8.86 8.35Q8.55 8.99 8.09 9.46L8.09 9.46L8.09 9.46Q7.63 9.93 6.92 10.21L6.92 10.21L6.92 10.21Q6.20 10.50 5.31 10.50L5.31 10.50L2.55 10.50L2.55 10.50Q1.69 10.50 1.32 10.07L1.32 10.07L1.32 10.07Q0.95 9.63 0.95 8.50L0.95 8.50L0.95 2.59L0.95 2.59Q0.95 0.92 2.55 0.92L2.55 0.92ZM10.68 1.88L10.68 1.88L10.68 1.88Q10.68 1.41 11.08 1.11L11.08 1.11L11.08 1.11Q11.48 0.81 12.21 0.81L12.21 0.81L12.21 0.81Q13.73 0.81 13.73 1.88L13.73 1.88L13.73 1.88Q13.73 2.46 13.35 2.70L13.35 2.70L13.35 2.70Q12.96 2.94 12.21 2.94L12.21 2.94L12.21 2.94Q11.55 2.94 11.12 2.69L11.12 2.69L11.12 2.69Q10.68 2.44 10.68 1.88ZM13.72 5.36L13.72 9.00L13.72 9.00Q13.72 9.84 13.37 10.17L13.37 10.17L13.37 10.17Q13.02 10.50 12.14 10.50L12.14 10.50L12.14 10.50Q11.31 10.50 11.01 10.12L11.01 10.12L11.01 10.12Q10.71 9.73 10.71 8.85L10.71 8.85L10.71 5.40L10.71 5.40Q10.71 4.69 11.10 4.26L11.10 4.26L11.10 4.26Q11.48 3.82 12.12 3.82L12.12 3.82L12.12 3.82Q12.88 3.82 13.30 4.15L13.30 4.15L13.30 4.15Q13.72 4.48 13.72 5.36L13.72 5.36ZM18.28 3.72L18.28 3.72L18.28 3.72Q19.59 3.72 20.45 4.26L20.45 4.26L20.45 4.26Q21.32 4.79 21.32 5.42L21.32 5.42L21.32 5.42Q21.32 5.60 21.17 5.75L21.17 5.75L21.17 5.75Q21.01 5.91 20.78 5.91L20.78 5.91L20.78 5.91Q20.57 5.91 20.31 5.76L20.31 5.76L20.31 5.76Q20.06 5.61 19.84 5.45L19.84 5.45L19.84 5.45Q19.61 5.28 19.25 5.14L19.25 5.14L19.25 5.14Q18.89 5.00 18.48 5.00L18.48 5.00L18.48 5.00Q17.93 5.00 17.93 5.33L17.93 5.33L17.93 5.33Q17.93 5.57 18.21 5.71L18.21 5.71L18.21 5.71Q18.49 5.85 19.03 6.01L19.03 6.01L19.03 6.01Q19.57 6.16 19.85 6.30L19.85 6.30L19.85 6.30Q20.90 6.71 21.29 7.17L21.29 7.17L21.29 7.17Q21.69 7.64 21.69 8.41L21.69 8.41L21.69 8.41Q21.69 8.79 21.48 9.16L21.48 9.16L21.48 9.16Q21.27 9.53 20.85 9.86L20.85 9.86L20.85 9.86Q20.43 10.19 19.71 10.39L19.71 10.39L19.71 10.39Q18.98 10.60 18.06 10.60L18.06 10.60L18.06 10.60Q16.25 10.60 15.36 9.77L15.36 9.77L15.36 9.77Q14.92 9.37 14.92 8.93L14.92 8.93L14.92 8.93Q14.92 8.67 15.10 8.51L15.10 8.51L15.10 8.51Q15.27 8.36 15.60 8.36L15.60 8.36L15.60 8.36Q15.92 8.36 16.58 8.67L16.58 8.67L16.58 8.67Q17.23 8.99 17.79 8.99L17.79 8.99L17.79 8.99Q18.56 8.99 18.56 8.61L18.56 8.61L18.56 8.61Q18.56 8.41 18.16 8.29L18.16 8.29L18.16 8.29Q17.75 8.18 17.09 8.01L17.09 8.01L17.09 8.01Q16.44 7.84 16.04 7.59L16.04 7.59L16.04 7.59Q15.43 7.32 15.18 6.92L15.18 6.92L15.18 6.92Q14.94 6.52 14.94 5.95L14.94 5.95L14.94 5.95Q14.94 4.97 15.87 4.35L15.87 4.35L15.87 4.35Q16.80 3.72 18.28 3.72ZM27.26 9.34L27.24 6.75L27.24 6.75Q27.24 5.95 26.63 5.95L26.63 5.95L26.63 5.95Q26.52 5.95 26.43 5.98L26.43 5.98L26.43 5.98Q26.33 6.01 26.26 6.05L26.26 6.05L26.26 6.05Q26.18 6.09 26.12 6.17L26.12 6.17L26.12 6.17Q26.05 6.24 26.01 6.33L26.01 6.33L26.01 6.33Q25.96 6.43 25.94 6.55L25.94 6.55L25.94 6.55Q25.91 6.68 25.91 6.83L25.91 6.83L25.91 8.37L25.91 8.37Q25.91 9.52 25.54 10.00L25.54 10.00L25.54 10.00Q25.17 10.49 24.42 10.49L24.42 10.49L24.42 10.49Q23.63 10.49 23.27 10.04L23.27 10.04L23.27 10.04Q22.90 9.60 22.90 8.48L22.90 8.48L22.88 2.52L22.88 2.52Q22.88 1.65 23.30 1.25L23.30 1.25L23.30 1.25Q23.72 0.84 24.42 0.84L24.42 0.84L24.42 0.84Q25.16 0.84 25.54 1.15L25.54 1.15L25.54 1.15Q25.91 1.46 25.91 2.39L25.91 2.39L25.91 4.42L25.91 4.42Q26.95 3.79 28.43 3.79L28.43 3.79L28.43 3.79Q29.11 3.79 29.51 4.14L29.51 4.14L29.51 4.14Q29.92 4.48 30.11 5.22L30.11 5.22L30.11 5.22Q30.31 5.96 30.31 7.17L30.31 7.17L30.31 7.17Q30.31 7.78 30.29 8.23L30.29 8.23L30.29 8.23Q30.27 8.68 30.23 9.05L30.23 9.05L30.23 9.05Q30.18 9.42 30.10 9.66L30.10 9.66L30.10 9.66Q30.02 9.90 29.90 10.07L29.90 10.07L29.90 10.07Q29.79 10.23 29.62 10.32L29.62 10.32L29.62 10.32Q29.44 10.42 29.23 10.46L29.23 10.46L29.23 10.46Q29.02 10.50 28.73 10.50L28.73 10.50L28.73 10.50Q27.94 10.50 27.60 10.21L27.60 10.21L27.60 10.21Q27.26 9.93 27.26 9.34L27.26 9.34ZM38.92 2.87L38.92 8.60L38.92 8.60Q39.28 8.60 39.56 8.52L39.56 8.52L39.56 8.52Q39.83 8.44 40.08 8.24L40.08 8.24L40.08 8.24Q40.32 8.04 40.47 7.70L40.47 7.70L40.47 7.70Q40.63 7.36 40.72 6.84L40.72 6.84L40.72 6.84Q40.81 6.31 40.81 5.60L40.81 5.60L40.81 5.60Q40.81 4.80 40.67 4.25L40.67 4.25L40.67 4.25Q40.53 3.70 40.26 3.41L40.26 3.41L40.26 3.41Q40.00 3.12 39.68 3.00L39.68 3.00L39.68 3.00Q39.37 2.88 38.92 2.87L38.92 2.87ZM37.28 0.92L39.34 0.92L39.34 0.92Q41.52 0.92 42.85 2.18L42.85 2.18L42.85 2.18Q44.17 3.44 44.17 5.66L44.17 5.66L44.17 5.66Q44.17 6.37 44.04 7.04L44.04 7.04L44.04 7.04Q43.90 7.71 43.60 8.35L43.60 8.35L43.60 8.35Q43.29 8.99 42.83 9.46L42.83 9.46L42.83 9.46Q42.36 9.93 41.65 10.21L41.65 10.21L41.65 10.21Q40.94 10.50 40.04 10.50L40.04 10.50L37.28 10.50L37.28 10.50Q36.43 10.50 36.06 10.07L36.06 10.07L36.06 10.07Q35.69 9.63 35.69 8.50L35.69 8.50L35.69 2.59L35.69 2.59Q35.69 0.92 37.28 0.92L37.28 0.92ZM47.96 10.58L47.96 10.58L47.96 10.58Q46.86 10.58 46.13 9.68L46.13 9.68L46.13 9.68Q45.40 8.78 45.40 7.21L45.40 7.21L45.40 7.21Q45.40 5.61 46.12 4.67L46.12 4.67L46.12 4.67Q46.84 3.72 47.96 3.72L47.96 3.72L47.96 3.72Q49.10 3.72 50.06 4.52L50.06 4.52L50.06 4.52Q50.44 3.82 51.28 3.82L51.28 3.82L51.28 3.82Q52.04 3.82 52.46 4.15L52.46 4.15L52.46 4.15Q52.88 4.48 52.88 5.36L52.88 5.36L52.88 9.00L52.88 9.00Q52.88 9.84 52.53 10.17L52.53 10.17L52.53 10.17Q52.18 10.50 51.30 10.50L51.30 10.50L51.30 10.50Q50.37 10.50 50.08 9.98L50.08 9.98L50.08 9.98Q49.18 10.58 47.96 10.58ZM49.87 8.48L49.87 5.87L49.87 5.87Q49.63 5.46 49.25 5.46L49.25 5.46L49.25 5.46Q48.89 5.46 48.66 5.99L48.66 5.99L48.66 5.99Q48.44 6.52 48.44 7.21L48.44 7.21L48.44 7.21Q48.44 7.85 48.65 8.36L48.65 8.36L48.65 8.36Q48.86 8.86 49.24 8.86L49.24 8.86L49.24 8.86Q49.63 8.86 49.87 8.48L49.87 8.48ZM57.48 3.72L57.48 3.72L57.48 3.72Q58.79 3.72 59.65 4.26L59.65 4.26L59.65 4.26Q60.52 4.79 60.52 5.42L60.52 5.42L60.52 5.42Q60.52 5.60 60.37 5.75L60.37 5.75L60.37 5.75Q60.21 5.91 59.98 5.91L59.98 5.91L59.98 5.91Q59.77 5.91 59.51 5.76L59.51 5.76L59.51 5.76Q59.26 5.61 59.04 5.45L59.04 5.45L59.04 5.45Q58.81 5.28 58.45 5.14L58.45 5.14L58.45 5.14Q58.09 5.00 57.68 5.00L57.68 5.00L57.68 5.00Q57.13 5.00 57.13 5.33L57.13 5.33L57.13 5.33Q57.13 5.57 57.41 5.71L57.41 5.71L57.41 5.71Q57.69 5.85 58.23 6.01L58.23 6.01L58.23 6.01Q58.77 6.16 59.05 6.30L59.05 6.30L59.05 6.30Q60.10 6.71 60.49 7.17L60.49 7.17L60.49 7.17Q60.89 7.64 60.89 8.41L60.89 8.41L60.89 8.41Q60.89 8.79 60.68 9.16L60.68 9.16L60.68 9.16Q60.47 9.53 60.05 9.86L60.05 9.86L60.05 9.86Q59.63 10.19 58.91 10.39L58.91 10.39L58.91 10.39Q58.18 10.60 57.26 10.60L57.26 10.60L57.26 10.60Q55.45 10.60 54.56 9.77L54.56 9.77L54.56 9.77Q54.12 9.37 54.12 8.93L54.12 8.93L54.12 8.93Q54.12 8.67 54.30 8.51L54.30 8.51L54.30 8.51Q54.47 8.36 54.80 8.36L54.80 8.36L54.80 8.36Q55.12 8.36 55.78 8.67L55.78 8.67L55.78 8.67Q56.43 8.99 56.99 8.99L56.99 8.99L56.99 8.99Q57.76 8.99 57.76 8.61L57.76 8.61L57.76 8.61Q57.76 8.41 57.36 8.29L57.36 8.29L57.36 8.29Q56.95 8.18 56.29 8.01L56.29 8.01L56.29 8.01Q55.64 7.84 55.24 7.59L55.24 7.59L55.24 7.59Q54.63 7.32 54.38 6.92L54.38 6.92L54.38 6.92Q54.14 6.52 54.14 5.95L54.14 5.95L54.14 5.95Q54.14 4.97 55.07 4.35L55.07 4.35L55.07 4.35Q56 3.72 57.48 3.72ZM66.46 9.34L66.44 6.75L66.44 6.75Q66.44 5.95 65.83 5.95L65.83 5.95L65.83 5.95Q65.72 5.95 65.63 5.98L65.63 5.98L65.63 5.98Q65.53 6.01 65.46 6.05L65.46 6.05L65.46 6.05Q65.38 6.09 65.32 6.17L65.32 6.17L65.32 6.17Q65.25 6.24 65.20 6.33L65.20 6.33L65.20 6.33Q65.16 6.43 65.14 6.55L65.14 6.55L65.14 6.55Q65.11 6.68 65.11 6.83L65.11 6.83L65.11 8.37L65.11 8.37Q65.11 9.52 64.74 10.00L64.74 10.00L64.74 10.00Q64.37 10.49 63.62 10.49L63.62 10.49L63.62 10.49Q62.83 10.49 62.47 10.04L62.47 10.04L62.47 10.04Q62.10 9.60 62.10 8.48L62.10 8.48L62.08 2.52L62.08 2.52Q62.08 1.65 62.50 1.25L62.50 1.25L62.50 1.25Q62.92 0.84 63.62 0.84L63.62 0.84L63.62 0.84Q64.36 0.84 64.74 1.15L64.74 1.15L64.74 1.15Q65.11 1.46 65.11 2.39L65.11 2.39L65.11 4.42L65.11 4.42Q66.15 3.79 67.63 3.79L67.63 3.79L67.63 3.79Q68.31 3.79 68.71 4.14L68.71 4.14L68.71 4.14Q69.12 4.48 69.31 5.22L69.31 5.22L69.31 5.22Q69.51 5.96 69.51 7.17L69.51 7.17L69.51 7.17Q69.51 7.78 69.49 8.23L69.49 8.23L69.49 8.23Q69.47 8.68 69.43 9.05L69.43 9.05L69.43 9.05Q69.38 9.42 69.30 9.66L69.30 9.66L69.30 9.66Q69.22 9.90 69.10 10.07L69.10 10.07L69.10 10.07Q68.99 10.23 68.82 10.32L68.82 10.32L68.82 10.32Q68.64 10.42 68.43 10.46L68.43 10.46L68.43 10.46Q68.22 10.50 67.93 10.50L67.93 10.50L67.93 10.50Q67.14 10.50 66.80 10.21L66.80 10.21L66.80 10.21Q66.46 9.93 66.46 9.34L66.46 9.34Z"></path></g><defs data-v-423bf9ae=""><linearGradient data-v-423bf9ae="" gradientTransform="rotate(25)" id="fe7831e8-9afc-431f-a123-cebb30bd61e5" x1="0%" y1="0%" x2="100%" y2="0%"><stop data-v-423bf9ae="" offset="0%" style="stop-color: rgb(230, 53, 0); stop-opacity: 1;"></stop><stop data-v-423bf9ae="" offset="100%" style="stop-color: rgb(255, 195, 22); stop-opacity: 1;"></stop></linearGradient></defs><g data-v-423bf9ae="" id="3417e584-eb86-45cd-94c2-be437f7e78be" transform="matrix(1.0550784640842015,0,0,1.0550784640842015,-2.2331572122232473,-2.229699904786692)" stroke="none" fill="url(#fe7831e8-9afc-431f-a123-cebb30bd61e5)"><path d="M51.7 2.5C25.4 1.6 3.4 22.1 2.5 48.3s19.6 48.2 45.8 49.1c26.2.9 48.2-19.6 49.1-45.8 1-26.2-19.5-48.2-45.7-49.1zm-2.9 81.1C30.3 83 15.7 67.4 16.4 48.9c.6-18.5 16.2-33.1 34.7-32.4 18.5.6 33.1 16.2 32.4 34.7-.6 18.5-16.1 33-34.7 32.4zm-4.1-60.3c-1.8-.1-3.5.1-5.3.3 3.6-1.4 7.5-2.2 11.5-2C66.7 22.1 79 35.3 78.4 51c-.1 4-1.1 7.9-2.8 11.3.3-1.7.5-3.3.6-5.1.7-18.1-13.4-33.3-31.5-33.9z"></path></g><!----></svg>